<svg id="Capa_1" enable-background="new 0 0 512 512" height="512" viewBox="0 0 512 512" width="512" xmlns="http://www.w3.org/2000/svg" xmlns:xlink="http://www.w3.org/1999/xlink"><linearGradient id="SVGID_1_" gradientUnits="userSpaceOnUse" x1="256" x2="256" y1="512" y2="0"><stop offset="0" stop-color="#96dcff"/><stop offset=".5028" stop-color="#e5f5ff"/><stop offset="1" stop-color="#e5f5ff"/></linearGradient><linearGradient id="SVGID_2_" gradientUnits="userSpaceOnUse" x1="256" x2="256" y1="437" y2="77"><stop offset="0" stop-color="#5357ff"/><stop offset="1" stop-color="#00c0ff"/></linearGradient><g><path d="m512 15c0 8.284-6.716 15-15 15h-16v47h-450v-47h-16c-8.284 0-15-6.716-15-15s6.716-15 15-15h482c8.284 0 15 6.716 15 15zm0 437v45c0 8.284-6.716 15-15 15h-482c-8.284 0-15-6.716-15-15v-45c0-8.284 6.716-15 15-15h16v-265h60v-35c0-8.284 6.716-15 15-15h60c8.284 0 15 6.716 15 15v35h30v-35c0-8.284 6.716-15 15-15h60c8.284 0 15 6.716 15 15v35h30v-35c0-8.284 6.716-15 15-15h60c8.284 0 15 6.716 15 15v35h60v265h16c8.284 0 15 6.716 15 15zm-271-120h30v-180h-30zm-150 105v-235h-30v235zm60 0v-285h-30v285zm60 0v-235h-30v235zm60 0v-75h-30v75zm60 0v-235h-30v235zm60 0v-285h-30v285zm60 0v-235h-30v235z" fill="url(#SVGID_1_)"/><path d="m241 152h30v180h-30zm60 285h30v-235h-30zm60 0h30v-285h-30zm60 0h30v-235h-30zm-300 0h30v-285h-30zm120 0h30v-75h-30zm-180 0h30v-235h-30zm30-300c0-8.284 6.716-15 15-15h60c8.284 0 15 6.716 15 15v35h30v-35c0-8.284 6.716-15 15-15h60c8.284 0 15 6.716 15 15v35h30v-35c0-8.284 6.716-15 15-15h60c8.284 0 15 6.716 15 15v35h60v-95h-450v95h60zm90 300h30v-235h-30z" fill="url(#SVGID_2_)"/></g></svg>